<svg t="1716207887404" class="icon" viewBox="0 0 1024 1024" version="1.1" xmlns="http://www.w3.org/2000/svg" p-id="2930" width="128" height="128"><path d="M470.316 2.14A60.498 60.498 0 0 1 483 0.056h58.224c9.534-0.543 18.776 3.15 28.456 2.649a23.323 23.323 0 0 1 11.62 3.463 22.447 22.447 0 0 1-1.023 4.986 56.89 56.89 0 0 1-6.947 0.667c-1.69 0.647-3.463 1.169-5.173 1.711a49.066 49.066 0 0 1-11.6 0.835 25.034 25.034 0 0 1-12.892 2.67c-1.731 0.647-3.525 1.126-5.278 1.627s-3.463 0.814-5.194 1.19c-3.421 0.98-6.864 1.856-10.431 2.523a28.768 28.768 0 0 1-10.43 2.379 17.44 17.44 0 0 1-9.055 2.628 40.534 40.534 0 0 1-9.116 2.67c-5.278 1.482-10.18 4.173-15.584 5.174-31.146 11.912-62 25.472-89.558 44.352a327.818 327.818 0 0 0-27.412 19.192c-6.989 6.113-13.977 12.204-21.154 18.066-8.824 8.866-17.732 17.65-26.494 26.557-10.264 12.705-21.466 24.637-30.353 38.469a421.882 421.882 0 0 0-39.888 71.534c-2.378 6.029-4.777 11.933-7.656 17.857a580.826 580.826 0 0 0-22.363 75.707c-0.5 6.258-3.213 12.1-3.13 18.4 0 4.485-3.003 8.344-2.503 12.996 0.522 5.779-2.754 10.994-2.608 16.69 0.21 6.112-1.48 11.932-2.378 17.961-0.667 6.446 0.668 13.06-1.022 19.401-1.252 6.488 0.48 13.227-1.106 19.714a55.95 55.95 0 0 0-0.667 12.768c0.167 5.486-0.563 11.056 0.855 16.439 1.44 8.782-0.813 17.836 1.44 26.535 1.001 8.136-0.48 16.44 0.73 24.596 1.105 3.797 0.605 7.802 1.335 11.64 2.086 8.053-0.438 16.544 1.794 24.576 0.5 5.152 0 10.43 1.502 15.437 0.334 11.161 0 22.364 0.167 33.546a103.056 103.056 0 0 1-22.489 55.324 99.217 99.217 0 0 1-62.584 31.293c-8.345 0-16.502 0.146-24.721-0.167a103.849 103.849 0 0 1-34.86-12.517c-9.826-4.778-17.065-13.039-25.2-20.027-8.011-10.139-15.688-21.28-18.275-34.171A450.108 450.108 0 0 1 1.203 527.204c-1.522-7.155-0.834-14.603-0.96-21.967 0.126-5.779-0.5-11.557 0.648-17.232 1.648-8.553-0.313-17.357 1.272-25.951 1.69-11.036 2.086-22.197 4.172-33.17 0-5.779 2.379-11.036 2.963-16.69 16.126-80.275 50.255-157.546 102.346-221.131a234.859 234.859 0 0 1 16.877-19.36c9.993-12.37 22.05-22.948 33.066-34.338 9.93-8.115 18.921-17.315 29.206-25.034a506.517 506.517 0 0 1 45.04-32.606c15.834-9.2 31.292-19.068 48.106-26.661 26.015-13.602 53.927-23.115 81.84-31.877 8.845-2.67 17.941-4.443 26.682-7.447 6.259-0.334 11.912-2.963 18.108-3.317 3.88-0.522 7.468-2.378 11.453-2.378 5.716 0 10.994-2.838 16.689-2.65a87.243 87.243 0 0 0 14.958-2.086c5.424-1.293 11.035 0 16.46-1.19z" fill="#FDD905" p-id="2931"></path><path d="M593.065 21.438c5.716-0.272 10.973-3.004 16.69-2.9a179.847 179.847 0 0 1 18.128 0.167c54.532 8.532 106.686 29.707 153.937 58.078 8.345 4.777 16.272 10.598 24.408 15.876 38.531 26.223 72.098 58.954 102.222 94.231 20.861 26.035 40.534 53.26 55.429 83.112a511.691 511.691 0 0 1 39.324 97.945 578.782 578.782 0 0 1 13.601 59.622c2.691 6.53 0.668 13.77 3.15 20.32s0.355 13.31 1.648 19.88c3.651 17.879 1.523 36.195 2.087 54.24a168.665 168.665 0 0 1-2.087 31.147c-1.084 6.425 0.21 13.017-1.585 19.338-1.961 7.156-0.96 14.603-3.192 21.467-4.443 31.626-13.33 62.397-23.845 92.52a472.68 472.68 0 0 1-22.03 51.716 194.7 194.7 0 0 1-9.867 18.776c-0.167 0.626-0.521 1.856-0.71 2.378-7.885 12.934-15.52 26.014-24.595 38.156-4.548 5.987-8.344 12.892-14.853 17.002-1.627-1.377-5.028-2.378-3.943-5.09 1.627-4.61 3.776-8.992 5.382-13.602 0.626-1.794 1.19-3.568 1.836-5.34q0.668-2.087 1.419-3.964c0.167-0.564 0.438-1.711 0.584-2.274a104.683 104.683 0 0 0 3.129-10.535c4.318-12.851 7.155-26.223 10.43-39.283 1.148-6.133 2.775-12.162 4.006-18.253 0-6.655 1.961-13.06 2.691-19.652a130.74 130.74 0 0 1 2.525-16.69c0.667-8.156-0.376-16.355 0.5-24.49 1.481-5.591 0.897-11.391 1.002-17.107a54.407 54.407 0 0 0-0.877-13.894c-1.105-7.468 0-15.04-0.563-22.53a106.581 106.581 0 0 1-2.378-18.066 481.525 481.525 0 0 0-18.358-74.309l-1.815-2.67c-1.92-8.115-6.008-15.48-8.804-23.282-0.939-1.69-1.794-3.4-2.65-5.132q-2.649-5.152-5.173-10.43-1.356-2.566-2.566-5.174a418.503 418.503 0 0 0-40.054-63.002 244.226 244.226 0 0 0-18.65-22.489c-5.215-7.635-13.122-12.85-18.42-20.423a83.968 83.968 0 0 0-11.183-10.994c-6.467-4.777-11.056-11.432-17.67-15.938a111.86 111.86 0 0 0-14.018-11.766c-20.069-17.023-42.015-31.71-64.045-46.062-7.385-4.298-15.02-8.136-22.03-12.997-1.815-0.793-3.567-1.648-5.34-2.503s-3.442-1.711-5.153-2.608c-8.47-4.777-17.148-8.97-25.952-12.955q-2.607-1.273-5.132-2.608a47.981 47.981 0 0 0-5.278-2.378q-2.628-1.252-5.132-2.628c-9.346-4.632-19.234-8.053-28.622-12.935s-19.213-8.073-28.622-12.892c-1.773-0.834-3.504-1.71-5.215-2.608s-3.442-1.69-5.132-2.607a111.088 111.088 0 0 1-10.43-5.362l-2.379-0.688c-7.28-6.154-15.792-10.848-22.197-17.983a92 92 0 0 1-16.98-24.908c-6.572-11.516-7.886-24.93-8.992-37.843 0-5.654 1.71-11.161 1.502-16.856 4.172-20.048 13.456-39.637 28.622-53.781 11.223-12.058 26.828-18.776 42.307-23.449z" fill="#25A636" p-id="2932"></path><path d="M480.476 293.43a111.61 111.61 0 0 0 19.276-2.775c11.223-0.375 22.468 0 33.691-0.187 6.989-0.23 13.706 2.086 20.653 2.545 5.361 0.187 10.306 2.67 15.688 2.879 11.578 3.838 23.51 7.155 34.296 13.1 6.697 4.465 13.498 8.825 20.09 13.456a162.157 162.157 0 0 1 36.403 47.69 279.544 279.544 0 0 1 13.581 40.534c0.292 6.154 3.025 11.912 2.816 18.107s2.379 11.912 2.545 18.192c0 8.198-0.166 16.397 0 24.595-0.292 2.921 1.67 5.195 3.15 7.469 5.8 7.927 9.868 16.856 14.708 25.347 10.43 22.321 20.173 45.165 25.555 69.155 1.961 6.55 0.793 13.456 1.19 20.194a13.518 13.518 0 0 1-7.886 4.778 50.339 50.339 0 0 1-34.443-15.104 60.916 60.916 0 0 0-7.155-6.717c-5.716 4.297-6.926 11.703-10.43 17.565-5.154 11.349-12.247 21.633-17.629 32.878 4.36 5.278 11.912 5.507 17.378 9.054 8.22 4.047 13.685 11.62 18.504 19.088a20.862 20.862 0 0 1-4.172 16.564c-8.157 8.344-19.673 12.37-30.813 15.187a174.235 174.235 0 0 1-33.003 5.841c-13.539 2.378-27.328 0.71-40.826-1.043a119.599 119.599 0 0 1-28.622-6.675c-10.806-3.443-21.78-9.013-33.378-6.572-10.848 3.15-20.862 8.616-32.064 10.827-7.886 2.086-16.022 2.608-24.012 4.173-8.032 0.646-16.147 0-24.2 0.312-7.468 0.355-14.602-2.649-21.966-2.774a162.72 162.72 0 0 1-37.113-10.681c-6.258-4.172-13.038-9.054-15.104-16.69-2.378-3.754 0-7.78 1.544-11.285 5.215-10.807 16.063-17.879 27.475-20.716 2.566-0.521 4.172-2.795 5.778-4.61a46.354 46.354 0 0 0-3.713-9.221 426.04 426.04 0 0 1-18.045-33.629 24.366 24.366 0 0 0-4.486-7.155c-3.984-1.148-6.258 2.67-8.845 4.944-8.49 8.22-19.318 15.458-31.605 15.187-3.713 0.209-8.991-0.23-10.556-4.172-0.167-6.467 2.65-12.517 2.816-19.068a300.865 300.865 0 0 1 31.772-83.696c2.733-4.777 6.718-8.887 9.367-13.81 2.086-3.568 0.751-7.615 0.543-11.433-0.605-6.946 1.356-13.726 1.606-20.652 1.857-7.156-0.396-14.791 2.566-21.696a184.478 184.478 0 0 1 11.098-41.723c4.444-13.06 11.912-24.784 19.631-36.09 4.402-5.362 8.157-11.496 13.894-15.605 5.361-4.173 9.867-9.304 15.562-12.997 7.01-5.048 15.104-8.157 22.677-12.225 5.424-3.046 11.599-4.297 17.42-6.404 5.36-2.379 11.473-2.086 16.96-4.173h-0.23z" fill="#0096D3" p-id="2933"></path><path d="M798.906 704.548c7.155-2.378 14.603 0.688 21.904 0.333 14.603 2.942 29.207 8.345 40.806 18.275 5.549 3.526 9.22 9.117 14.185 13.33a192.53 192.53 0 0 1 12.893 18.776 150.787 150.787 0 0 1 10.43 29.728c0.73 6.738 0 13.56 0.355 20.36 0.835 13.477-4.172 26.39-8.991 38.699a102.034 102.034 0 0 1-8.345 13.643c-7.614 9.2-16.689 16.94-24.93 25.66-6.445 8.136-15.103 14.081-22.363 21.466-8.344 6.738-16.126 14.311-25.034 20.403-11.661 9.304-24.533 16.94-36.841 25.346-16.501 8.97-32.46 19.089-49.838 26.223a410.847 410.847 0 0 1-74.121 27.12c-19.088 6.259-38.949 9.764-58.684 13.393-6.446 2.087-13.35 0.313-19.797 2.379s-13.79 0.876-20.549 2.378c-7.28 0.438-14.603 0.626-21.8 1.544a472.325 472.325 0 0 1-55.492-1.544c-6.842-1.523-14.019-0.167-20.715-2.378s-13.664 0.187-19.944-2.858a527.003 527.003 0 0 1-166.016-55.68c-5.882-4.172-12.788-6.78-18.88-10.64a495.273 495.273 0 0 1-72.806-52.82c-6.467-4.778-11.432-11.224-17.607-16.335a91.52 91.52 0 0 1-16.69-16.69c-14.31-13.893-26.618-29.643-38.739-45.31a461.04 461.04 0 0 1-45.457-73.704c-2.9-6.259-6.613-12.058-8.7-18.63l-1.898-2.086a80.692 80.692 0 0 1-1.731-8.699l2.858-3.88c5.695 2.378 8.01 8.47 12.517 12.35 4.777 6.926 11.724 11.682 16.334 18.63a524.556 524.556 0 0 0 16.69 16.688c8.156 6.092 14.31 14.311 22.717 20.174 5.362 3.671 9.534 8.928 15.062 12.204a386.063 386.063 0 0 0 65.568 42.14c7.782 5.424 16.96 7.99 25.263 12.35 8.554 3.734 17.503 6.571 25.973 10.43 10.43 1.732 19.944 7.156 30.541 8.345 6.259 2.086 12.788 3.004 19.089 4.777 5.84 0 11.223 2.692 17.043 2.817a149.827 149.827 0 0 1 15.334 2.378c5.215 0.542 10.535-0.438 15.688 0.793 4.777 1.21 9.533 0.292 14.31 0.855a90.873 90.873 0 0 0 23.345 0.897c6.258-1.794 12.975-0.688 19.442-1.293a44.226 44.226 0 0 1 12.705-1.106c7.51 0.375 14.603-2.691 22.155-2.608 5.361 0.23 10.055-3.192 15.48-2.65 11.369-1.793 22.446-4.964 33.545-7.676 15.687-3.234 30.687-9.096 45.895-13.936 9.534-3.88 19.318-7.301 28.622-11.536a408.135 408.135 0 0 0 60.665-29.79 266.902 266.902 0 0 0 23.24-14.04c8.345-4.026 15.437-9.826 23.135-14.812 6.843-5.82 14.77-10.138 21.947-15.52 6.696-3.464 11.912-9.055 18.337-12.851 12.392-8.7 24.658-17.65 36.987-26.453 6.718-3.4 12.747-8.01 19.673-11.036 11.035-4.777 22.697-8.657 34.838-8.344l0.293-0.25z" fill="#E40212" p-id="2934"></path></svg>